PathFileType	4	(X/Y/Z)	c:/Users/goper/Files/vsCode/490R/osim_files/A03/A03_Slow_02.trc
DataRate	CameraRate	NumFrames	NumMarkers	Units                	OrigDataRate	OrigDataStartFrame	OrigNumFrames
250.00	250.00	9	36	mm	250.0	1487	2972
                Frame#	Time	LPSIS			LASIS			LTH1			LTH2			LTH3			LTH4			LLFE			LMFE			LSH1			LSH2			LSH3			LSH4			LLMAL			LMMAL			LCAL			LMTP5			LTOE			LMTP1			RPSIS			RASIS			RTH1			RTH2			RTH3			RTH4			RLFE			RMFE			RSH1			RSH2			RSH3			RSH4			RLMAL			RMMAL			RCAL			RMTP1			RTOE			RMTP5		
		X1	Y1	Z1	X2	Y2	Z2	X3	Y3	Z3	X4	Y4	Z4	X5	Y5	Z5	X6	Y6	Z6	X7	Y7	Z7	X8	Y8	Z8	X9	Y9	Z9	X10	Y10	Z10	X11	Y11	Z11	X12	Y12	Z12	X13	Y13	Z13	X14	Y14	Z14	X15	Y15	Z15	X16	Y16	Z16	X17	Y17	Z17	X18	Y18	Z18	X19	Y19	Z19	X20	Y20	Z20	X21	Y21	Z21	X22	Y22	Z22	X23	Y23	Z23	X24	Y24	Z24	X25	Y25	Z25	X26	Y26	Z26	X27	Y27	Z27	X28	Y28	Z28	X29	Y29	Z29	X30	Y30	Z30	X31	Y31	Z31	X32	Y32	Z32	X33	Y33	Z33	X34	Y34	Z34	X35	Y35	Z35	X36	Y36	Z36

1487	5.94400	585.14410	1045.79810	195.07516	361.24576	972.04871	342.04840	358.76953	619.47729	419.15808	350.52005	577.20087	426.12686	298.24399	622.67938	410.38251	299.92590	579.25458	416.50238	356.68585	525.68866	414.52896	315.10175	497.81866	267.15149	447.25507	505.76089	394.24600	483.46094	474.35422	386.85248	413.50836	452.27087	399.10596	454.02542	431.23199	385.41675	729.49896	271.43906	308.12732	695.85211	259.97400	216.32921	771.06781	313.77710	241.04459	687.25934	118.36774	335.95276	630.92932	111.95567	279.89267	656.51093	118.90519	227.88043	577.48334	1053.77930	113.21852	322.49930	982.92334	45.53730	339.75180	614.74707	1.19921	325.58316	570.56561	11.27021	274.68948	622.90790	12.37085	271.57034	580.51947	18.73458	299.78412	541.57788	29.27924	268.90341	555.58911	148.88847	348.21436	475.65134	24.42944	350.17593	434.11423	14.25591	286.11871	464.75513	26.54434	296.28717	419.03415	18.13777	367.53079	126.49124	77.34254	0.00000	0.00000	0.00000	425.46155	89.89573	139.58777	212.74353	50.81517	178.00383	185.62949	72.43976	132.25700	219.84779	43.29305	61.66923
1488	5.94800	581.69891	1046.80872	194.78925	357.65796	973.48639	341.98172	351.45410	621.15314	419.15091	342.81882	578.92328	425.95764	291.01126	624.83850	409.85275	292.31699	581.37396	415.92844	348.71207	527.22815	414.32785	307.60788	500.41095	266.62701	439.50165	506.76825	394.27841	475.15964	474.78867	386.98111	404.95010	453.33826	398.87567	445.34857	431.96777	385.30280	719.67487	269.99680	308.43524	686.28406	259.07944	216.39529	761.80292	312.08701	241.78162	675.77246	117.02624	335.35806	619.56848	111.52979	278.94870	645.50537	118.34940	227.13815	574.12360	1054.88232	112.88962	317.93384	983.54364	45.32161	338.73477	615.06763	1.32621	324.76254	570.83331	11.39087	273.77722	622.84308	12.78174	270.63351	580.51569	18.92729	299.43991	541.60242	29.49273	269.57764	555.33539	148.81244	347.63895	475.86197	24.60023	349.75098	434.34497	14.38868	285.58881	464.86047	26.65407	295.95535	419.17047	18.20139	367.13715	126.38614	77.63470	0.00000	0.00000	0.00000	425.43494	90.02138	139.53186	212.73103	50.83982	177.98766	185.64806	72.41916	132.24455	219.83374	43.29174	61.67942
1489	5.95200	578.31805	1047.79150	194.45035	354.21539	974.86505	341.94077	344.13647	622.80603	419.02954	335.18384	580.68854	425.75131	283.89761	627.00122	409.32953	284.79138	583.53918	415.30893	340.89029	528.79883	414.08319	300.18481	503.10391	266.09698	431.59827	507.56049	394.37039	466.88782	475.16571	387.09509	396.40417	454.37347	398.63358	436.66052	432.64151	385.16180	709.66193	268.27402	308.79367	676.58893	258.03772	216.57057	752.01959	309.77832	242.66179	664.08600	115.71683	334.71332	608.05347	110.99345	277.95193	634.37488	117.71477	226.37833	570.75555	1055.96497	112.63544	314.88824	984.12329	45.34912	337.65259	615.32324	1.48261	323.91464	571.12109	11.53533	271.31140	622.86279	13.26321	269.72296	580.49500	19.08070	298.68188	541.73413	29.66176	267.58270	555.59406	149.33192	347.12866	476.08435	24.79914	349.32895	434.57217	14.57255	284.40469	464.79355	27.04685	295.55402	419.30728	18.32564	366.97052	126.41848	77.68611	0.00000	0.00000	0.00000	425.40500	90.12666	139.48477	212.75935	50.84481	177.98627	185.65881	72.40910	132.21954	219.87021	43.28718	61.65196
1490	5.95600	574.96759	1048.81128	194.13866	350.69760	976.28253	341.87354	337.09531	624.59760	418.97943	327.72110	582.49841	425.49554	276.78351	629.21057	408.74600	277.38638	585.77185	414.69662	333.16745	530.36975	413.82501	292.83405	505.75165	265.54639	423.48865	508.07037	394.48123	458.68265	475.51047	387.19064	387.84488	455.36484	398.38812	427.69894	432.97791	385.46082	699.57831	266.34824	309.14493	666.83911	256.85135	216.73199	743.18799	308.11157	243.25362	652.15094	114.15485	334.17310	596.40204	110.35401	276.91251	623.03998	117.00932	225.68678	567.44110	1057.06458	112.34144	312.75562	984.79456	45.52291	336.48831	615.50653	1.66670	323.03659	571.36340	11.68949	270.24213	622.85474	13.40582	268.93750	580.50702	19.21365	297.67221	541.93011	29.80177	267.00186	555.58820	149.58673	346.66614	476.32675	24.99953	348.97824	434.79803	14.74672	283.96320	464.92664	27.20324	295.14789	419.44675	18.48623	366.92935	126.54789	77.67299	0.00000	0.00000	0.00000	425.41464	90.20782	139.41571	212.78236	50.86094	177.96162	185.70268	72.40118	132.19432	219.88586	43.29891	61.64643
1491	5.96000	571.67554	1049.84045	193.80074	347.21210	977.70874	341.76724	329.95602	626.40350	418.80789	320.47021	584.49548	425.29697	269.85416	631.49579	408.17578	270.02582	588.02618	414.02188	325.52127	532.02063	413.53592	285.58246	508.46295	264.96591	416.01031	509.07855	394.46747	450.47525	475.81134	387.29990	379.47513	456.42517	398.10715	419.16153	433.71762	385.25391	689.36780	264.25027	309.48373	656.89246	255.54753	216.95459	733.78027	305.77036	243.95485	640.11945	112.56773	333.66364	584.63184	109.61889	275.84058	611.04401	116.11416	225.15157	564.12811	1058.16650	112.12519	309.53391	985.42822	45.45111	335.22488	615.61017	1.87677	322.23056	571.61462	11.88020	269.26981	622.90057	13.49788	268.03763	580.47156	19.41762	297.07950	542.11267	30.01958	267.64511	555.41846	149.54308	346.25110	476.56549	25.23198	348.61960	435.03189	14.95886	283.57187	465.03442	27.38957	294.77023	419.58966	18.66642	366.84741	126.67704	77.64379	0.00000	0.00000	0.00000	425.42798	90.33350	139.35367	212.82275	50.89330	177.95985	185.73569	72.43254	132.17952	219.90382	43.28326	61.64128
1492	5.96400	568.35614	1050.84998	193.50723	343.72046	979.06274	341.63998	322.99478	628.20239	418.71335	312.90210	586.27979	424.97491	262.96231	633.78149	407.50854	262.79938	590.27417	413.30673	317.94940	533.70361	413.27164	278.40060	511.17950	264.40012	407.34811	509.15286	394.36560	442.34918	476.12054	387.35355	371.01437	457.46353	397.82971	410.55664	434.38309	385.00375	679.06653	262.01245	309.78436	646.95715	254.04666	217.05449	724.24585	303.26242	244.67590	627.82220	110.67095	333.25790	572.74872	108.79690	274.75345	599.36096	115.12715	224.56143	560.82556	1059.22937	111.88990	306.23553	986.08423	45.26276	333.84540	615.62659	2.11110	321.58646	571.92377	12.07687	268.26926	622.91034	13.66530	267.45602	580.54211	19.51780	296.61008	542.19147	30.26820	265.75891	555.66449	150.10028	345.85422	476.79303	25.47007	348.28952	435.25974	15.18553	283.14154	465.16956	27.57807	294.41992	419.73495	18.86543	366.81726	126.79816	77.63129	0.00000	0.00000	0.00000	425.41791	90.44238	139.30760	212.83997	50.89967	177.92384	185.75218	72.45008	132.15099	219.90280	43.32284	61.62578
1493	5.96800	565.08008	1051.85876	193.25310	340.25598	980.46698	341.44708	315.96237	630.02106	418.50204	305.63611	588.19128	424.67123	256.15247	636.04639	406.82620	255.65669	592.58698	412.58453	310.40298	535.35571	412.97842	271.24091	513.91205	263.87811	399.60269	509.85199	394.40219	434.19781	476.36517	387.41971	362.61490	458.51315	397.56995	402.00415	435.05969	384.76593	668.62006	259.59918	310.11691	637.19714	252.45932	217.23936	714.61493	300.56628	245.34740	615.42224	108.80193	332.78519	560.71143	107.90253	273.69714	587.51715	114.04752	223.98433	557.52441	1060.30884	111.72498	303.06607	986.66418	45.06762	332.33286	615.54865	2.36799	320.93655	572.16382	12.31805	267.23798	622.91412	13.90149	266.88931	580.57880	19.76578	295.85669	542.39099	30.42015	266.35812	555.48810	150.08047	345.48111	477.01276	25.70014	347.95627	435.47693	15.44096	283.52344	465.47522	27.52658	294.09592	419.88150	19.08252	366.76813	126.92099	77.64960	0.00000	0.00000	0.00000	425.42273	90.57005	139.27136	212.82935	50.89935	177.92267	185.73413	72.44883	132.11765	219.85693	43.32653	61.65351
1494	5.97200	561.84503	1052.84241	193.01035	337.84064	982.10864	341.44656	309.14191	631.93738	418.33078	298.41687	590.10565	424.34750	249.36967	638.38617	406.16101	248.52914	594.91510	411.84677	302.97110	537.12561	412.69003	264.16431	516.62433	263.33527	392.77219	511.20108	394.57162	426.09756	476.55151	387.44534	354.23776	459.53812	397.25656	393.44684	435.72336	384.54544	658.01337	257.07312	310.45154	627.00037	250.54904	217.39832	704.79352	297.64529	246.04803	602.79456	106.84389	332.37265	548.46710	106.95171	272.72485	575.58069	112.79353	223.44286	554.23364	1061.36023	111.55647	300.03677	987.15973	44.94288	330.67029	615.36908	2.64573	320.17734	572.41687	12.54953	266.23898	622.91290	14.09451	266.16010	580.54797	19.90856	295.26959	542.53455	30.64864	265.81390	555.43530	150.31702	344.94727	477.16565	25.99750	347.65961	435.70807	15.70774	283.13757	465.58435	27.75416	293.79718	420.02832	19.31694	366.69714	127.05270	77.65320	0.00000	0.00000	0.00000	425.39694	90.68086	139.24666	212.79610	50.91796	177.91663	185.74989	72.45319	132.12007	219.86179	43.33323	61.64412
1495	5.97600	558.57532	1053.84338	192.82771	333.15881	983.24121	340.93726	302.25360	633.74274	418.06094	291.25845	592.04669	424.01410	242.76263	640.68939	405.47122	241.54041	597.22314	411.11594	295.64053	538.82294	412.34134	257.24719	519.30969	262.80823	384.42029	511.21054	394.33664	418.07840	476.71896	387.46515	345.92557	460.60059	396.97424	384.91623	436.37714	384.31754	647.57330	254.61331	310.83704	617.03949	248.77998	216.86960	694.93365	294.57007	246.70735	590.05707	104.84702	332.03787	535.97919	105.95541	271.88327	563.37610	111.50676	223.00563	550.91956	1062.36462	111.44410	297.09787	987.66504	44.79906	328.84079	615.08038	2.94260	319.48657	572.60742	12.84800	265.29648	622.90363	14.31215	265.58774	580.53992	20.11993	294.77872	542.58325	30.94290	265.08566	555.43756	150.58684	344.55151	477.38666	26.32573	347.39777	435.96088	15.99473	282.73499	465.72247	28.02830	293.52271	420.17435	19.56794	366.63696	127.14597	77.69730	0.00000	0.00000	0.00000	425.34616	90.77289	139.29170	212.76442	50.88198	177.91920	185.72498	72.41430	132.09006	219.89401	43.33338	61.63162
